<?xml version="1.0" encoding="utf-8"?>
<!-- Generator: Adobe Illustrator 16.0.0, SVG Export Plug-In . SVG Version: 6.00 Build 0)  -->
<!DOCTYPE svg PUBLIC "-//W3C//DTD SVG 1.1//EN" "http://www.w3.org/Graphics/SVG/1.1/DTD/svg11.dtd">
<svg version="1.1" id="Capa_1" xmlns="http://www.w3.org/2000/svg" xmlns:xlink="http://www.w3.org/1999/xlink" x="0px" y="0px"
	 width="140px" height="64px" viewBox="130 60.5 140 64" enable-background="new 130 60.5 140 64" xml:space="preserve">
<g>
	<path fill="#0E1555" d="M146.069,81.361c2.333,0,4.575,0.384,6.672,1.083c0.943-1.935,1.473-4.106,1.473-6.402
		c0-8.079-6.549-14.629-14.629-14.629c-3.234,0-6.222,1.052-8.644,2.829v23.512C134.777,83.812,140.135,81.361,146.069,81.361z"/>
	<linearGradient id="SVGID_1_" gradientUnits="userSpaceOnUse" x1="130.9414" y1="103.0156" x2="167.1816" y2="103.0156">
		<stop  offset="0" style="stop-color:#4D4D4D"/>
		<stop  offset="0.5304" style="stop-color:#FFFFFF"/>
		<stop  offset="1" style="stop-color:#1A1A1A"/>
	</linearGradient>
	<path fill="url(#SVGID_1_)" d="M152.741,82.444c-2.375,4.87-7.372,8.227-13.156,8.227c-3.234,0-6.222-1.052-8.644-2.829v29.351
		c3.835,3.942,9.194,6.395,15.127,6.395c11.66,0,21.113-9.453,21.113-21.114C167.182,93.146,161.13,85.237,152.741,82.444z"/>
	<linearGradient id="SVGID_2_" gradientUnits="userSpaceOnUse" x1="130.9414" y1="86.0161" x2="152.7412" y2="86.0161">
		<stop  offset="0" style="stop-color:#4D4D4D"/>
		<stop  offset="0.5304" style="stop-color:#FFFFFF"/>
		<stop  offset="1" style="stop-color:#1A1A1A"/>
	</linearGradient>
	<path opacity="0.8" fill="url(#SVGID_2_)" d="M130.941,87.754v0.088c2.422,1.777,5.41,2.829,8.644,2.829
		c5.784,0,10.781-3.356,13.156-8.227c-2.098-0.699-4.34-1.083-6.672-1.083C140.135,81.361,134.777,83.812,130.941,87.754z"/>
	<path fill="#4EC3CD" d="M130.941,87.754v0.088c2.422,1.777,5.41,2.829,8.644,2.829c5.784,0,10.781-3.356,13.156-8.227
		c-2.098-0.699-4.34-1.083-6.672-1.083C140.135,81.361,134.777,83.812,130.941,87.754z"/>
	<path fill="#FFFFFF" d="M130.891,87.806c0.017,0.013,0.033,0.023,0.05,0.036v-0.088C130.924,87.771,130.908,87.789,130.891,87.806z
		"/>
	<path fill="#4EC3CD" d="M161.156,96.449c0.293-0.705,0.282-1.664-0.37-2.172c-0.654-0.51-1.596-0.282-2.147,0.265
		c-0.622,0.613-0.815,1.467-0.904,2.312c-0.089-1.061-0.433-2.112-1.291-2.8c-0.886-0.712-2.309-0.784-3.052,0.18
		c-0.37,0.479-0.5,1.103-0.52,1.695c-0.022,0.629,0.071,1.262,0.262,1.861c0.386,1.207,1.173,2.277,2.238,2.971
		c1.197,0.78,2.683,1.079,4.087,0.822c0.038-0.012,0.066-0.021,0.017-0.064c-0.738-0.653-0.472-1.88-0.019-2.634
		C159.968,98.035,160.769,97.376,161.156,96.449"/>
	<g>
		<path fill="#0E1555" d="M174.121,115.827c0.178-0.473,0.394-0.822,0.647-1.044c0.254-0.223,0.555-0.334,0.905-0.334
			c0.035,0,0.063,0.002,0.088,0.005c0.024,0.003,0.049,0.005,0.077,0.005c-0.021,0.103-0.036,0.212-0.046,0.329
			c-0.01,0.117-0.015,0.254-0.015,0.412v0.327c0,0.057,0,0.114,0,0.177c0,0.061,0.003,0.119,0.01,0.175l-0.093,0.081
			c-0.069-0.041-0.146-0.075-0.231-0.103c-0.085-0.027-0.183-0.041-0.293-0.041c-0.309,0-0.552,0.103-0.73,0.304
			c-0.178,0.202-0.268,0.44-0.268,0.715v0.411c0,0.418,0.005,0.813,0.016,1.183c0.01,0.37,0.032,0.728,0.067,1.07
			c-0.089-0.016-0.2-0.021-0.332-0.021c-0.133,0-0.278,0-0.435,0c-0.156,0-0.299,0-0.429,0c-0.129,0-0.242,0.006-0.337,0.021
			c0.03-0.343,0.05-0.7,0.059-1.07c0.009-0.369,0.013-0.765,0.013-1.183v-0.411c0-0.418-0.004-0.811-0.013-1.179
			c-0.009-0.366-0.029-0.734-0.059-1.104c0.116,0.014,0.233,0.024,0.352,0.036c0.119,0.01,0.237,0.016,0.353,0.016
			s0.233-0.006,0.353-0.016c0.119-0.012,0.236-0.022,0.352-0.036l-0.03,1.254L174.121,115.827z"/>
		<path fill="#0E1555" d="M178.049,117.812c0.055,0.239,0.139,0.448,0.252,0.621c0.113,0.177,0.257,0.313,0.433,0.413
			c0.174,0.099,0.378,0.148,0.611,0.148c0.473,0,0.895-0.154,1.265-0.463l0.124,0.093l-0.227,0.576
			c-0.171,0.13-0.377,0.233-0.617,0.313c-0.24,0.079-0.555,0.119-0.946,0.119c-0.335,0-0.654-0.046-0.956-0.14
			c-0.302-0.093-0.568-0.244-0.797-0.457c-0.23-0.212-0.411-0.482-0.545-0.808c-0.133-0.326-0.2-0.715-0.2-1.166
			c0-0.447,0.06-0.834,0.18-1.164c0.12-0.328,0.287-0.603,0.499-0.822s0.464-0.384,0.756-0.493c0.291-0.11,0.608-0.165,0.951-0.165
			c0.679,0,1.198,0.199,1.558,0.597s0.54,0.96,0.54,1.687v0.217c0,0.061-0.004,0.102-0.01,0.122h-2.952
			C177.966,117.314,177.994,117.572,178.049,117.812z M179.36,115.344c-0.113-0.309-0.304-0.463-0.571-0.463
			c-0.151,0-0.278,0.051-0.381,0.154c-0.103,0.103-0.185,0.234-0.247,0.395c-0.062,0.163-0.108,0.345-0.139,0.547
			s-0.05,0.402-0.057,0.601h1.584C179.537,116.063,179.474,115.652,179.36,115.344z"/>
		<path fill="#0E1555" d="M181.854,116.259c-0.014-0.562-0.035-1.131-0.062-1.707c0.117,0.014,0.237,0.024,0.36,0.036
			c0.124,0.01,0.243,0.016,0.36,0.016s0.235-0.006,0.354-0.016c0.121-0.012,0.238-0.022,0.355-0.036
			c-0.014,0.116-0.029,0.255-0.047,0.416c-0.017,0.162-0.025,0.317-0.025,0.468h0.02c0.096-0.288,0.271-0.529,0.524-0.725
			c0.254-0.196,0.566-0.293,0.936-0.293c0.26,0,0.511,0.048,0.751,0.144s0.453,0.247,0.638,0.453
			c0.185,0.205,0.333,0.469,0.442,0.791c0.11,0.323,0.165,0.707,0.165,1.151c0,0.488-0.058,0.902-0.175,1.246
			c-0.116,0.343-0.269,0.622-0.458,0.837c-0.188,0.217-0.404,0.369-0.647,0.459c-0.243,0.089-0.492,0.134-0.746,0.134
			c-0.309,0-0.576-0.06-0.802-0.176c-0.226-0.117-0.401-0.298-0.524-0.546h-0.021v0.834c0,0.239,0.001,0.484,0.005,0.734
			c0.003,0.251,0.008,0.489,0.015,0.715c0.007,0.227,0.016,0.429,0.026,0.607s0.022,0.312,0.036,0.402
			c-0.089-0.015-0.203-0.026-0.339-0.036c-0.137-0.011-0.281-0.017-0.433-0.017c-0.15,0-0.294,0.006-0.432,0.017
			c-0.137,0.01-0.25,0.021-0.339,0.036c0.014-0.288,0.025-0.573,0.037-0.854c0.01-0.281,0.018-0.565,0.025-0.854
			c0.006-0.288,0.011-0.579,0.015-0.874c0.003-0.295,0.005-0.61,0.005-0.947v-0.564
			C181.875,117.438,181.868,116.821,181.854,116.259z M184.853,115.514c-0.169-0.306-0.39-0.459-0.664-0.459
			c-0.131,0-0.254,0.038-0.371,0.114c-0.117,0.074-0.221,0.194-0.313,0.358c-0.092,0.165-0.166,0.381-0.221,0.649
			c-0.055,0.267-0.083,0.593-0.083,0.978c0,0.623,0.081,1.084,0.242,1.383c0.161,0.298,0.396,0.447,0.704,0.447
			c0.295,0,0.528-0.16,0.699-0.483c0.171-0.322,0.258-0.827,0.258-1.512C185.104,116.311,185.021,115.819,184.853,115.514z"/>
		<path fill="#0E1555" d="M188.981,115.827c0.178-0.473,0.394-0.822,0.648-1.044c0.253-0.223,0.555-0.334,0.905-0.334
			c0.034,0,0.063,0.002,0.087,0.005c0.024,0.003,0.05,0.005,0.077,0.005c-0.021,0.103-0.037,0.212-0.046,0.329
			s-0.016,0.254-0.016,0.412v0.327c0,0.057,0,0.114,0,0.177c0,0.061,0.004,0.119,0.011,0.175l-0.093,0.081
			c-0.069-0.041-0.146-0.075-0.232-0.103c-0.085-0.027-0.183-0.041-0.293-0.041c-0.308,0-0.552,0.103-0.73,0.304
			c-0.178,0.202-0.267,0.44-0.267,0.715v0.411c0,0.418,0.005,0.813,0.015,1.183c0.01,0.37,0.033,0.728,0.066,1.07
			c-0.088-0.016-0.199-0.021-0.332-0.021c-0.133,0-0.278,0-0.435,0c-0.156,0-0.299,0-0.429,0c-0.129,0-0.242,0.006-0.337,0.021
			c0.03-0.343,0.05-0.7,0.059-1.07c0.009-0.369,0.013-0.765,0.013-1.183v-0.411c0-0.418-0.004-0.811-0.013-1.179
			c-0.009-0.366-0.029-0.734-0.059-1.104c0.116,0.014,0.233,0.024,0.353,0.036c0.119,0.01,0.237,0.016,0.352,0.016
			c0.116,0,0.233-0.006,0.353-0.016c0.119-0.012,0.236-0.022,0.352-0.036l-0.031,1.254L188.981,115.827z"/>
		<path fill="#0E1555" d="M191.516,115.96c0.14-0.342,0.327-0.629,0.561-0.858c0.233-0.229,0.501-0.4,0.807-0.514
			c0.305-0.113,0.618-0.17,0.94-0.17c0.802,0,1.423,0.227,1.861,0.679c0.439,0.453,0.659,1.066,0.659,1.841
			c0,0.419-0.062,0.796-0.186,1.132c-0.123,0.336-0.296,0.622-0.52,0.858c-0.222,0.236-0.488,0.412-0.796,0.529
			c-0.309,0.116-0.648,0.176-1.019,0.176c-0.309,0-0.611-0.042-0.91-0.124s-0.568-0.222-0.808-0.417
			c-0.24-0.196-0.434-0.45-0.581-0.767c-0.147-0.314-0.222-0.703-0.222-1.161C191.305,116.704,191.375,116.304,191.516,115.96z
			 M194.596,115.379c-0.151-0.332-0.401-0.498-0.75-0.498c-0.315,0-0.564,0.185-0.746,0.555c-0.182,0.37-0.272,0.949-0.272,1.738
			c0,0.288,0.017,0.556,0.052,0.803c0.034,0.247,0.09,0.462,0.169,0.643c0.079,0.182,0.182,0.324,0.309,0.427
			c0.126,0.102,0.286,0.154,0.478,0.154c0.658,0,0.987-0.805,0.987-2.417C194.822,116.181,194.747,115.712,194.596,115.379z"/>
		<path fill="#0E1555" d="M201.795,117.822c0.014,0.562,0.035,1.121,0.062,1.677c-0.09-0.016-0.203-0.021-0.34-0.021
			s-0.281,0-0.432,0c-0.139,0-0.27,0-0.396,0s-0.224,0.006-0.293,0.021c0.006-0.016,0.015-0.059,0.021-0.135
			c0.006-0.076,0.016-0.16,0.025-0.256c0.01-0.097,0.019-0.186,0.025-0.269c0.007-0.082,0.012-0.134,0.012-0.154l-0.021-0.021
			c-0.131,0.309-0.309,0.548-0.535,0.715c-0.227,0.169-0.538,0.253-0.936,0.253c-0.35,0-0.648-0.068-0.895-0.201
			c-0.247-0.133-0.449-0.32-0.607-0.56c-0.158-0.24-0.274-0.522-0.35-0.845s-0.113-0.668-0.113-1.038s0.051-0.712,0.154-1.022
			c0.103-0.312,0.243-0.584,0.421-0.812c0.178-0.23,0.389-0.411,0.632-0.541c0.243-0.131,0.502-0.195,0.777-0.195
			c0.309,0,0.584,0.072,0.828,0.216c0.243,0.145,0.423,0.325,0.539,0.546h0.021c0-0.618-0.006-1.199-0.021-1.743
			c-0.013-0.545-0.034-1.11-0.061-1.692c0.087,0.014,0.203,0.026,0.339,0.036s0.281,0.016,0.432,0.016s0.295-0.006,0.432-0.016
			s0.25-0.022,0.34-0.036c-0.027,0.576-0.049,1.146-0.062,1.708c-0.014,0.562-0.02,1.179-0.02,1.851v0.668
			C201.775,116.644,201.781,117.261,201.795,117.822z M198.617,118.027c0.049,0.24,0.113,0.434,0.195,0.582
			c0.083,0.146,0.178,0.252,0.283,0.318c0.106,0.064,0.218,0.098,0.335,0.098c0.28,0,0.513-0.16,0.694-0.479
			c0.18-0.318,0.271-0.849,0.271-1.59c0-0.637-0.085-1.101-0.258-1.393c-0.17-0.291-0.39-0.437-0.656-0.437
			c-0.11,0-0.22,0.03-0.33,0.092c-0.109,0.062-0.209,0.171-0.299,0.324c-0.088,0.154-0.162,0.362-0.221,0.623
			c-0.058,0.26-0.087,0.585-0.087,0.977C198.545,117.493,198.569,117.788,198.617,118.027z"/>
		<path fill="#0E1555" d="M206.115,118.758c-0.191,0.288-0.416,0.506-0.676,0.653c-0.256,0.147-0.549,0.222-0.877,0.222
			c-0.516,0-0.912-0.144-1.189-0.433s-0.416-0.766-0.416-1.429c0-0.352,0.006-0.659,0.021-0.927c0.014-0.268,0.02-0.534,0.02-0.802
			c0-0.22-0.004-0.457-0.014-0.715c-0.012-0.257-0.025-0.517-0.037-0.776c0.09,0.014,0.201,0.024,0.338,0.036
			c0.139,0.01,0.281,0.016,0.434,0.016c0.15,0,0.293-0.006,0.432-0.016c0.137-0.012,0.25-0.022,0.338-0.036
			c-0.047,0.37-0.076,0.799-0.09,1.285c-0.016,0.486-0.021,1.043-0.021,1.666c0,0.433,0.074,0.75,0.221,0.952
			c0.148,0.202,0.354,0.303,0.623,0.303c0.309,0,0.533-0.134,0.678-0.401s0.217-0.638,0.217-1.11v-0.411
			c0-0.418-0.006-0.811-0.016-1.179c-0.01-0.366-0.033-0.734-0.066-1.104c0.191,0.034,0.447,0.052,0.771,0.052
			c0.156,0,0.301-0.006,0.43-0.016c0.131-0.012,0.244-0.022,0.34-0.036c-0.033,0.37-0.055,0.738-0.066,1.104
			c-0.01,0.368-0.014,0.761-0.014,1.179v0.411c0,0.418,0.004,0.813,0.014,1.183c0.012,0.37,0.033,0.728,0.066,1.07
			c-0.123-0.016-0.244-0.021-0.363-0.021c-0.121,0-0.242,0-0.367,0c-0.123,0-0.244,0-0.363,0c-0.121,0-0.25,0.006-0.387,0.021
			l0.041-0.741H206.115z"/>
		<path fill="#0E1555" d="M212.084,115.226c-0.16-0.188-0.398-0.283-0.715-0.283c-0.41,0-0.719,0.188-0.924,0.561
			c-0.207,0.374-0.311,0.894-0.311,1.56c0,0.622,0.131,1.101,0.391,1.434c0.262,0.332,0.643,0.498,1.143,0.498
			c0.213,0,0.418-0.05,0.617-0.148c0.199-0.1,0.346-0.211,0.441-0.335l0.125,0.103c-0.049,0.097-0.09,0.196-0.125,0.298
			c-0.033,0.104-0.068,0.207-0.102,0.31c-0.15,0.115-0.342,0.213-0.572,0.293c-0.229,0.079-0.502,0.119-0.816,0.119
			c-0.5,0-0.922-0.072-1.266-0.217c-0.342-0.144-0.617-0.34-0.828-0.586c-0.209-0.247-0.357-0.526-0.445-0.839
			c-0.092-0.311-0.135-0.625-0.135-0.941c0-0.377,0.062-0.727,0.189-1.048s0.309-0.6,0.545-0.833s0.523-0.417,0.859-0.551
			c0.336-0.133,0.709-0.2,1.121-0.2c0.391,0,0.721,0.045,0.992,0.134c0.271,0.09,0.529,0.205,0.777,0.35
			c-0.084,0.137-0.16,0.306-0.232,0.505c-0.072,0.198-0.125,0.386-0.16,0.564h-0.246
			C212.354,115.662,212.246,115.414,212.084,115.226z"/>
		<path fill="#0E1555" d="M217.227,115.226c-0.16-0.188-0.4-0.283-0.715-0.283c-0.412,0-0.719,0.188-0.926,0.561
			c-0.205,0.374-0.309,0.894-0.309,1.56c0,0.622,0.131,1.101,0.391,1.434c0.262,0.332,0.643,0.498,1.143,0.498
			c0.213,0,0.418-0.05,0.617-0.148c0.197-0.1,0.346-0.211,0.441-0.335l0.123,0.103c-0.047,0.097-0.088,0.196-0.123,0.298
			c-0.035,0.104-0.068,0.207-0.104,0.31c-0.15,0.115-0.34,0.213-0.57,0.293c-0.23,0.079-0.502,0.119-0.816,0.119
			c-0.5,0-0.924-0.072-1.266-0.217c-0.344-0.144-0.619-0.34-0.828-0.586c-0.209-0.247-0.357-0.526-0.447-0.839
			c-0.088-0.311-0.133-0.625-0.133-0.941c0-0.377,0.062-0.727,0.189-1.048s0.309-0.6,0.545-0.833s0.523-0.417,0.859-0.551
			c0.334-0.133,0.709-0.2,1.121-0.2c0.391,0,0.721,0.045,0.992,0.134c0.27,0.09,0.529,0.205,0.777,0.35
			c-0.084,0.137-0.16,0.306-0.232,0.505c-0.072,0.198-0.125,0.386-0.158,0.564h-0.248
			C217.496,115.662,217.387,115.414,217.227,115.226z"/>
		<path fill="#0E1555" d="M219.258,112.032c0.158-0.158,0.35-0.236,0.576-0.236s0.418,0.078,0.576,0.236
			c0.156,0.157,0.236,0.349,0.236,0.575s-0.08,0.419-0.236,0.576c-0.158,0.158-0.35,0.236-0.576,0.236s-0.418-0.078-0.576-0.236
			c-0.158-0.157-0.236-0.35-0.236-0.576S219.1,112.189,219.258,112.032z M219.129,115.656c-0.01-0.366-0.033-0.734-0.066-1.104
			c0.096,0.014,0.209,0.024,0.34,0.036c0.129,0.01,0.273,0.016,0.432,0.016c0.322,0,0.58-0.018,0.771-0.052
			c-0.035,0.37-0.057,0.738-0.068,1.104c-0.01,0.368-0.014,0.761-0.014,1.179v0.411c0,0.418,0.004,0.813,0.014,1.183
			c0.012,0.37,0.033,0.728,0.068,1.07c-0.09-0.016-0.199-0.021-0.334-0.021s-0.281,0-0.438,0c-0.158,0-0.303,0-0.432,0
			c-0.131,0-0.244,0.006-0.34,0.021c0.033-0.343,0.057-0.7,0.066-1.07c0.012-0.369,0.016-0.765,0.016-1.183v-0.411
			C219.145,116.417,219.141,116.024,219.129,115.656z"/>
		<path fill="#0E1555" d="M221.812,115.96c0.143-0.342,0.328-0.629,0.562-0.858c0.232-0.229,0.5-0.4,0.807-0.514
			c0.305-0.113,0.619-0.17,0.941-0.17c0.801,0,1.422,0.227,1.861,0.679c0.438,0.453,0.658,1.066,0.658,1.841
			c0,0.419-0.062,0.796-0.186,1.132s-0.297,0.622-0.52,0.858s-0.488,0.412-0.797,0.529c-0.309,0.116-0.648,0.176-1.018,0.176
			c-0.311,0-0.611-0.042-0.91-0.124s-0.566-0.222-0.807-0.417c-0.24-0.196-0.436-0.45-0.584-0.767
			c-0.146-0.314-0.219-0.703-0.219-1.161C221.604,116.704,221.672,116.304,221.812,115.96z M224.895,115.379
			c-0.152-0.332-0.402-0.498-0.752-0.498c-0.316,0-0.564,0.185-0.746,0.555c-0.18,0.37-0.271,0.949-0.271,1.738
			c0,0.288,0.018,0.556,0.051,0.803c0.035,0.247,0.092,0.462,0.17,0.643c0.08,0.182,0.182,0.324,0.309,0.427
			c0.127,0.102,0.287,0.154,0.479,0.154c0.658,0,0.988-0.805,0.988-2.417C225.121,116.181,225.045,115.712,224.895,115.379z
			 M224.199,112.64c0.223-0.262,0.4-0.453,0.529-0.577c0.131-0.122,0.23-0.198,0.299-0.227c0.068-0.026,0.141-0.04,0.215-0.04
			c0.166,0,0.287,0.048,0.367,0.145c0.078,0.096,0.117,0.201,0.117,0.318c0,0.067-0.014,0.134-0.041,0.194
			c-0.027,0.062-0.104,0.143-0.227,0.242s-0.311,0.23-0.561,0.39c-0.25,0.163-0.598,0.376-1.043,0.644h-0.566
			C223.674,113.263,223.977,112.898,224.199,112.64z"/>
		<path fill="#0E1555" d="M228.988,115.323c0.191-0.288,0.416-0.512,0.672-0.669c0.258-0.157,0.549-0.236,0.879-0.236
			c0.514,0,0.91,0.148,1.189,0.448c0.277,0.298,0.416,0.778,0.416,1.444c0,0.349-0.008,0.658-0.02,0.925
			c-0.016,0.268-0.023,0.536-0.023,0.803c0,0.22,0.006,0.458,0.016,0.715c0.012,0.258,0.023,0.506,0.037,0.746
			c-0.09-0.016-0.203-0.021-0.34-0.021s-0.281,0-0.432,0s-0.295,0-0.432,0s-0.25,0.006-0.338,0.021
			c0.047-0.357,0.078-0.777,0.092-1.261s0.02-1.036,0.02-1.661c0-0.433-0.074-0.748-0.221-0.951
			c-0.146-0.202-0.355-0.303-0.621-0.303c-0.311,0-0.537,0.133-0.68,0.401c-0.145,0.266-0.215,0.637-0.215,1.11v0.411
			c0,0.418,0.004,0.813,0.014,1.183c0.01,0.37,0.033,0.728,0.066,1.07c-0.088-0.016-0.201-0.021-0.334-0.021s-0.277,0-0.438,0
			c-0.156,0-0.301,0-0.432,0s-0.242,0.006-0.338,0.021c0.033-0.343,0.055-0.7,0.066-1.07c0.01-0.369,0.016-0.765,0.016-1.183v-0.411
			c0-0.418-0.006-0.811-0.016-1.179c-0.012-0.366-0.033-0.734-0.066-1.104c0.123,0.014,0.244,0.024,0.365,0.036
			c0.119,0.01,0.242,0.016,0.363,0.016c0.125,0,0.246-0.006,0.365-0.016c0.121-0.012,0.248-0.022,0.387-0.036l-0.041,0.771H228.988z
			"/>
		<path fill="#0E1555" d="M237.086,114.604c0.332-0.125,0.662-0.186,0.992-0.186c0.273,0,0.525,0.031,0.756,0.093
			c0.229,0.062,0.428,0.158,0.596,0.292c0.17,0.135,0.299,0.308,0.391,0.521c0.094,0.213,0.141,0.469,0.141,0.771
			c0,0.44-0.006,0.846-0.016,1.219c-0.01,0.375-0.018,0.747-0.018,1.116c0,0.165,0.014,0.293,0.037,0.385
			c0.023,0.094,0.061,0.164,0.107,0.212c0.049,0.048,0.113,0.078,0.189,0.093c0.08,0.014,0.172,0.02,0.273,0.02v0.246
			c-0.197,0.084-0.367,0.145-0.502,0.187c-0.139,0.041-0.285,0.062-0.443,0.062c-0.254,0-0.459-0.062-0.617-0.186
			s-0.277-0.302-0.359-0.536c-0.158,0.221-0.342,0.396-0.551,0.524c-0.209,0.131-0.471,0.197-0.787,0.197
			c-0.26,0-0.482-0.034-0.668-0.104c-0.186-0.067-0.338-0.165-0.457-0.293c-0.119-0.125-0.207-0.27-0.262-0.432
			c-0.057-0.16-0.084-0.324-0.084-0.488c0-0.227,0.037-0.421,0.107-0.586c0.072-0.165,0.176-0.306,0.311-0.421
			c0.133-0.117,0.293-0.215,0.477-0.294c0.186-0.079,0.395-0.145,0.629-0.201c0.287-0.067,0.516-0.128,0.682-0.18
			c0.17-0.05,0.295-0.104,0.377-0.154s0.135-0.108,0.158-0.169c0.025-0.062,0.037-0.138,0.037-0.227
			c0-0.247-0.088-0.458-0.262-0.632c-0.176-0.176-0.418-0.263-0.727-0.263c-0.115,0-0.236,0.015-0.359,0.046
			c-0.123,0.03-0.24,0.074-0.355,0.128c-0.111,0.056-0.215,0.114-0.309,0.181c-0.092,0.065-0.162,0.137-0.209,0.21h-0.072
			l-0.135-0.616C236.443,114.905,236.754,114.727,237.086,114.604z M238.598,117.262c0.004-0.154,0.006-0.29,0.006-0.406
			c-0.145,0.082-0.299,0.148-0.459,0.2s-0.309,0.116-0.441,0.196c-0.135,0.078-0.244,0.187-0.328,0.322
			c-0.088,0.138-0.129,0.336-0.129,0.597c0,0.255,0.051,0.448,0.158,0.582s0.248,0.2,0.426,0.2c0.227,0,0.41-0.085,0.551-0.257
			c0.141-0.171,0.211-0.425,0.211-0.761C238.592,117.641,238.594,117.416,238.598,117.262z"/>
		<path fill="#0E1555" d="M241.568,118.547c0.066,0.1,0.146,0.188,0.242,0.267c0.096,0.08,0.211,0.143,0.344,0.19
			c0.135,0.048,0.291,0.072,0.469,0.072c0.24,0,0.426-0.061,0.557-0.185c0.129-0.124,0.195-0.257,0.195-0.4
			c0-0.158-0.059-0.285-0.176-0.381c-0.115-0.096-0.262-0.184-0.438-0.263c-0.174-0.079-0.365-0.159-0.57-0.241
			c-0.205-0.083-0.396-0.188-0.57-0.314c-0.176-0.126-0.32-0.286-0.438-0.479s-0.174-0.438-0.174-0.74
			c0-0.287,0.053-0.535,0.158-0.745c0.107-0.208,0.246-0.381,0.416-0.515c0.172-0.133,0.367-0.232,0.582-0.299
			c0.215-0.063,0.43-0.097,0.643-0.097c0.287,0,0.543,0.041,0.766,0.123s0.451,0.202,0.684,0.36
			c-0.061,0.137-0.111,0.284-0.152,0.442c-0.043,0.158-0.072,0.312-0.094,0.462h-0.287c-0.021-0.081-0.057-0.173-0.104-0.271
			c-0.049-0.101-0.111-0.194-0.195-0.282c-0.082-0.09-0.182-0.164-0.297-0.222c-0.119-0.059-0.26-0.088-0.422-0.088
			c-0.207,0-0.379,0.055-0.52,0.165c-0.143,0.108-0.213,0.253-0.213,0.432c0,0.165,0.061,0.296,0.18,0.396
			c0.121,0.1,0.271,0.187,0.449,0.262c0.178,0.076,0.371,0.151,0.586,0.227c0.213,0.076,0.406,0.174,0.586,0.293
			c0.178,0.12,0.328,0.276,0.447,0.468c0.121,0.192,0.18,0.438,0.18,0.741s-0.055,0.56-0.164,0.777
			c-0.109,0.216-0.256,0.394-0.441,0.533c-0.186,0.142-0.396,0.242-0.633,0.304c-0.238,0.062-0.486,0.094-0.746,0.094
			c-0.309,0-0.588-0.045-0.834-0.134c-0.246-0.09-0.441-0.183-0.586-0.278c0.084-0.329,0.135-0.658,0.154-0.987h0.258
			C241.451,118.344,241.506,118.448,241.568,118.547z"/>
		<path fill="#0E1555" d="M245.555,112.032c0.158-0.158,0.35-0.236,0.576-0.236c0.225,0,0.418,0.078,0.576,0.236
			c0.158,0.157,0.236,0.349,0.236,0.575s-0.078,0.419-0.236,0.576c-0.158,0.158-0.352,0.236-0.576,0.236
			c-0.227,0-0.418-0.078-0.576-0.236c-0.158-0.157-0.236-0.35-0.236-0.576S245.396,112.189,245.555,112.032z M245.428,115.656
			c-0.012-0.366-0.035-0.734-0.068-1.104c0.096,0.014,0.209,0.024,0.34,0.036c0.129,0.01,0.273,0.016,0.432,0.016
			c0.32,0,0.58-0.018,0.771-0.052c-0.035,0.37-0.057,0.738-0.068,1.104c-0.01,0.368-0.014,0.761-0.014,1.179v0.411
			c0,0.418,0.004,0.813,0.014,1.183c0.012,0.37,0.033,0.728,0.068,1.07c-0.09-0.016-0.199-0.021-0.334-0.021s-0.281,0-0.438,0
			c-0.158,0-0.303,0-0.432,0c-0.131,0-0.244,0.006-0.34,0.021c0.033-0.343,0.057-0.7,0.068-1.07c0.01-0.369,0.014-0.765,0.014-1.183
			v-0.411C245.441,116.417,245.438,116.024,245.428,115.656z"/>
		<path fill="#0E1555" d="M248.43,118.547c0.064,0.1,0.145,0.188,0.24,0.267c0.096,0.08,0.211,0.143,0.346,0.19
			c0.133,0.048,0.289,0.072,0.467,0.072c0.24,0,0.426-0.061,0.557-0.185c0.129-0.124,0.195-0.257,0.195-0.4
			c0-0.158-0.059-0.285-0.174-0.381c-0.117-0.096-0.264-0.184-0.439-0.263c-0.174-0.079-0.365-0.159-0.57-0.241
			c-0.205-0.083-0.396-0.188-0.57-0.314c-0.176-0.126-0.32-0.286-0.438-0.479s-0.174-0.438-0.174-0.74
			c0-0.287,0.053-0.535,0.158-0.745c0.107-0.208,0.246-0.381,0.416-0.515c0.174-0.133,0.367-0.232,0.582-0.299
			c0.217-0.063,0.43-0.097,0.643-0.097c0.289,0,0.543,0.041,0.768,0.123c0.221,0.082,0.449,0.202,0.684,0.36
			c-0.062,0.137-0.113,0.284-0.154,0.442s-0.072,0.312-0.094,0.462h-0.287c-0.021-0.081-0.055-0.173-0.104-0.271
			c-0.047-0.101-0.111-0.194-0.193-0.282c-0.084-0.09-0.184-0.164-0.299-0.222c-0.119-0.059-0.258-0.088-0.422-0.088
			c-0.207,0-0.379,0.055-0.52,0.165c-0.143,0.108-0.213,0.253-0.213,0.432c0,0.165,0.061,0.296,0.182,0.396
			c0.119,0.1,0.27,0.187,0.447,0.262c0.178,0.076,0.373,0.151,0.586,0.227c0.213,0.076,0.408,0.174,0.586,0.293
			c0.178,0.12,0.328,0.276,0.447,0.468c0.121,0.192,0.18,0.438,0.18,0.741s-0.055,0.56-0.164,0.777
			c-0.109,0.216-0.256,0.394-0.441,0.533c-0.186,0.142-0.396,0.242-0.633,0.304c-0.238,0.062-0.486,0.094-0.746,0.094
			c-0.309,0-0.586-0.045-0.834-0.134c-0.246-0.09-0.441-0.183-0.586-0.278c0.084-0.329,0.135-0.658,0.154-0.987h0.258
			C248.311,118.344,248.365,118.448,248.43,118.547z"/>
		<path fill="#0E1555" d="M254.779,114.881c0,0.089,0.01,0.174,0.031,0.257l-0.904-0.021c-0.014,0.158-0.027,0.339-0.037,0.545
			c-0.01,0.207-0.018,0.415-0.02,0.627c-0.004,0.213-0.008,0.418-0.012,0.617c-0.002,0.2-0.004,0.367-0.004,0.504
			c0,0.356,0.008,0.645,0.025,0.864c0.016,0.22,0.047,0.387,0.088,0.504s0.1,0.195,0.174,0.237c0.076,0.04,0.172,0.061,0.287,0.061
			c0.131,0,0.227-0.008,0.289-0.025c0.062-0.017,0.123-0.043,0.186-0.077v0.423c-0.139,0.061-0.309,0.115-0.514,0.164
			c-0.207,0.048-0.408,0.072-0.607,0.072c-0.871,0-1.307-0.521-1.307-1.563c0-0.198,0.004-0.424,0.012-0.674
			c0.006-0.251,0.014-0.508,0.023-0.772c0.012-0.264,0.02-0.524,0.027-0.781c0.008-0.256,0.01-0.494,0.01-0.714l-0.721,0.01
			c0.021-0.083,0.031-0.168,0.031-0.257c0-0.082-0.01-0.176-0.031-0.277l0.721,0.03c0-0.213-0.002-0.411-0.01-0.597
			s-0.018-0.407-0.031-0.668c0.24-0.096,0.477-0.197,0.709-0.304c0.234-0.105,0.467-0.218,0.699-0.334l0.104,0.071
			c-0.014,0.111-0.025,0.238-0.035,0.387c-0.012,0.146-0.021,0.302-0.033,0.462c-0.01,0.161-0.016,0.326-0.02,0.493
			c-0.004,0.169-0.004,0.328-0.004,0.479l0.904-0.02C254.789,114.705,254.779,114.799,254.779,114.881z"/>
		<path fill="#0E1555" d="M255.838,112.032c0.158-0.158,0.352-0.236,0.578-0.236c0.225,0,0.416,0.078,0.576,0.236
			c0.156,0.157,0.236,0.349,0.236,0.575s-0.08,0.419-0.236,0.576c-0.16,0.158-0.352,0.236-0.576,0.236
			c-0.227,0-0.42-0.078-0.578-0.236c-0.156-0.157-0.236-0.35-0.236-0.576S255.682,112.189,255.838,112.032z M255.711,115.656
			c-0.01-0.366-0.033-0.734-0.068-1.104c0.098,0.014,0.209,0.024,0.34,0.036c0.129,0.01,0.273,0.016,0.434,0.016
			c0.32,0,0.578-0.018,0.77-0.052c-0.035,0.37-0.057,0.738-0.066,1.104c-0.01,0.368-0.016,0.761-0.016,1.179v0.411
			c0,0.418,0.006,0.813,0.016,1.183c0.01,0.37,0.031,0.728,0.066,1.07c-0.088-0.016-0.199-0.021-0.334-0.021s-0.279,0-0.436,0
			c-0.16,0-0.305,0-0.434,0c-0.131,0-0.242,0.006-0.34,0.021c0.035-0.343,0.059-0.7,0.068-1.07c0.01-0.369,0.016-0.765,0.016-1.183
			v-0.411C255.727,116.417,255.721,116.024,255.711,115.656z"/>
		<path fill="#0E1555" d="M262.955,117.822c0.014,0.562,0.035,1.121,0.062,1.677c-0.09-0.016-0.203-0.021-0.34-0.021
			s-0.281,0-0.432,0c-0.137,0-0.27,0-0.395,0c-0.129,0-0.227,0.006-0.295,0.021c0.008-0.016,0.014-0.059,0.02-0.135
			c0.008-0.076,0.016-0.16,0.027-0.256c0.01-0.097,0.02-0.186,0.025-0.269c0.006-0.082,0.01-0.134,0.01-0.154l-0.02-0.021
			c-0.131,0.309-0.309,0.548-0.535,0.715c-0.227,0.169-0.539,0.253-0.936,0.253c-0.35,0-0.648-0.068-0.895-0.201
			c-0.248-0.133-0.449-0.32-0.607-0.56c-0.158-0.24-0.273-0.522-0.35-0.845s-0.113-0.668-0.113-1.038s0.053-0.712,0.154-1.022
			c0.104-0.312,0.244-0.584,0.422-0.812c0.178-0.23,0.389-0.411,0.633-0.541c0.242-0.131,0.502-0.195,0.775-0.195
			c0.309,0,0.586,0.072,0.828,0.216c0.244,0.145,0.424,0.325,0.541,0.546h0.02c0-0.618-0.008-1.199-0.02-1.743
			c-0.014-0.545-0.035-1.11-0.062-1.692c0.09,0.014,0.201,0.026,0.34,0.036c0.137,0.01,0.281,0.016,0.432,0.016
			s0.295-0.006,0.432-0.016s0.25-0.022,0.34-0.036c-0.027,0.576-0.049,1.146-0.062,1.708c-0.014,0.562-0.021,1.179-0.021,1.851
			v0.668C262.934,116.644,262.941,117.261,262.955,117.822z M259.777,118.027c0.049,0.24,0.113,0.434,0.195,0.582
			c0.082,0.146,0.176,0.252,0.283,0.318c0.105,0.064,0.219,0.098,0.334,0.098c0.281,0,0.512-0.16,0.695-0.479
			c0.182-0.318,0.271-0.849,0.271-1.59c0-0.637-0.086-1.101-0.256-1.393c-0.174-0.291-0.391-0.437-0.66-0.437
			c-0.109,0-0.219,0.03-0.328,0.092s-0.209,0.171-0.299,0.324c-0.088,0.154-0.162,0.362-0.221,0.623
			c-0.059,0.26-0.086,0.585-0.086,0.977C259.707,117.493,259.73,117.788,259.777,118.027z"/>
		<path fill="#0E1555" d="M265.09,114.604c0.334-0.125,0.664-0.186,0.992-0.186c0.273,0,0.527,0.031,0.756,0.093
			s0.428,0.158,0.598,0.292c0.166,0.135,0.297,0.308,0.391,0.521c0.092,0.213,0.139,0.469,0.139,0.771
			c0,0.44-0.006,0.846-0.016,1.219c-0.012,0.375-0.016,0.747-0.016,1.116c0,0.165,0.012,0.293,0.035,0.385
			c0.025,0.094,0.061,0.164,0.107,0.212c0.049,0.048,0.113,0.078,0.191,0.093c0.078,0.014,0.17,0.02,0.271,0.02v0.246
			c-0.197,0.084-0.365,0.145-0.502,0.187c-0.137,0.041-0.285,0.062-0.443,0.062c-0.254,0-0.459-0.062-0.617-0.186
			s-0.277-0.302-0.359-0.536c-0.158,0.221-0.342,0.396-0.551,0.524c-0.209,0.131-0.471,0.197-0.785,0.197
			c-0.262,0-0.486-0.034-0.67-0.104c-0.186-0.067-0.338-0.165-0.457-0.293c-0.121-0.125-0.207-0.27-0.264-0.432
			c-0.055-0.16-0.082-0.324-0.082-0.488c0-0.227,0.037-0.421,0.109-0.586s0.174-0.306,0.309-0.421
			c0.133-0.117,0.293-0.215,0.479-0.294c0.184-0.079,0.393-0.145,0.627-0.201c0.287-0.067,0.516-0.128,0.684-0.18
			c0.168-0.05,0.293-0.104,0.375-0.154s0.135-0.108,0.158-0.169c0.025-0.062,0.037-0.138,0.037-0.227
			c0-0.247-0.088-0.458-0.262-0.632c-0.174-0.176-0.416-0.263-0.727-0.263c-0.115,0-0.236,0.015-0.359,0.046
			c-0.123,0.03-0.24,0.074-0.355,0.128c-0.111,0.056-0.215,0.114-0.307,0.181c-0.094,0.065-0.164,0.137-0.213,0.21h-0.07
			l-0.135-0.616C264.447,114.905,264.756,114.727,265.09,114.604z M266.602,117.262c0.002-0.154,0.004-0.29,0.004-0.406
			c-0.145,0.082-0.297,0.148-0.455,0.2c-0.164,0.052-0.311,0.116-0.443,0.196c-0.135,0.078-0.244,0.187-0.33,0.322
			c-0.084,0.138-0.129,0.336-0.129,0.597c0,0.255,0.055,0.448,0.16,0.582c0.107,0.134,0.25,0.2,0.426,0.2
			c0.227,0,0.412-0.085,0.551-0.257c0.141-0.171,0.211-0.425,0.211-0.761C266.596,117.641,266.598,117.416,266.602,117.262z"/>
	</g>
	<g>
		<path fill="#67686B" d="M178.209,76.663c-0.237-0.461-0.55-0.862-0.94-1.205c-0.39-0.343-0.851-0.614-1.383-0.815
			c-0.531-0.2-1.094-0.302-1.684-0.302c-0.591,0-1.147,0.102-1.667,0.302c-0.52,0.201-0.975,0.473-1.365,0.815
			s-0.703,0.744-0.939,1.205c-0.237,0.461-0.354,0.952-0.354,1.472c0,0.044,0.006,0.086,0.007,0.129
			c-0.001,0.043-0.007,0.085-0.007,0.129c0,0.521,0.118,1.01,0.354,1.471c0.236,0.462,0.549,0.863,0.939,1.206
			s0.845,0.615,1.365,0.815c0.52,0.201,1.076,0.302,1.667,0.302c0.59,0,1.153-0.101,1.684-0.302c0.532-0.2,0.993-0.473,1.383-0.815
			c0.391-0.343,0.704-0.744,0.94-1.206c0.236-0.461,0.354-0.95,0.354-1.471c0-0.044-0.005-0.086-0.007-0.129
			c0.001-0.043,0.007-0.085,0.007-0.129C178.562,77.615,178.445,77.124,178.209,76.663z"/>
		<path fill="#67686B" d="M199.14,87.844c-1.114-1.048-2.43-1.873-3.946-2.474c-1.518-0.602-3.177-0.901-4.98-0.901
			c-1.803,0-3.471,0.329-5.002,0.989c-1.532,0.66-2.852,1.558-3.958,2.693c-1.107,1.136-1.971,2.47-2.594,4.001
			c-0.623,1.532-0.935,3.17-0.935,4.914c0,1.656,0.312,3.214,0.935,4.672c0.623,1.46,1.487,2.73,2.594,3.815
			c1.106,1.085,2.426,1.943,3.958,2.572c1.531,0.63,3.199,0.945,5.002,0.945c1.803,0,3.462-0.341,4.98-1.023
			c1.517-0.68,2.833-1.61,3.946-2.791c1.113-1.18,1.983-2.558,2.604-4.134c0.625-1.575,0.936-3.257,0.936-5.046
			c0-1.612-0.311-3.126-0.936-4.54C201.123,90.123,200.253,88.892,199.14,87.844z M196.941,101.903
			c-0.308,1.07-0.744,2.006-1.309,2.804c-0.564,0.8-1.231,1.436-2,1.912c-0.769,0.477-1.616,0.715-2.539,0.715
			c-1.276,0-2.419-0.324-3.43-0.979c-1.012-0.652-1.862-1.538-2.551-2.659c-0.688-1.121-1.216-2.438-1.583-3.948
			c-0.366-1.509-0.55-3.121-0.55-4.836c0-1.188,0.168-2.309,0.505-3.364c0.337-1.055,0.788-1.979,1.353-2.77
			c0.564-0.792,1.213-1.415,1.946-1.869c0.732-0.454,1.494-0.682,2.287-0.682c1.539,0,2.836,0.318,3.891,0.957
			c1.055,0.638,1.913,1.513,2.572,2.627c0.66,1.113,1.136,2.415,1.429,3.901c0.293,1.489,0.439,3.09,0.439,4.805
			C197.403,99.705,197.249,100.834,196.941,101.903z"/>
		<path fill="#67686B" d="M217.459,84.952h-6.311v-5.606c0-0.602,0.08-1.188,0.242-1.759c0.16-0.572,0.385-1.077,0.67-1.518
			c0.285-0.439,0.631-0.794,1.033-1.066c0.404-0.271,0.84-0.406,1.309-0.406c0.615,0,1.088,0.109,1.418,0.329
			s0.584,0.499,0.758,0.836c0.176,0.337,0.312,0.7,0.408,1.089c0.096,0.388,0.223,0.751,0.385,1.088
			c0.16,0.338,0.391,0.615,0.691,0.836c0.301,0.22,0.736,0.33,1.309,0.33c0.322,0,0.631-0.052,0.924-0.154s0.549-0.249,0.77-0.44
			c0.219-0.189,0.395-0.421,0.527-0.691c0.131-0.271,0.197-0.583,0.197-0.936c0-0.557-0.146-1.08-0.439-1.571
			s-0.717-0.916-1.275-1.275c-0.557-0.359-1.24-0.645-2.055-0.857s-1.74-0.319-2.781-0.319c-1.217,0-2.359,0.242-3.43,0.726
			s-2.002,1.147-2.793,1.989c-0.791,0.844-1.418,1.833-1.879,2.969c-0.463,1.137-0.693,2.35-0.693,3.64v2.77h-4.947v1.979h4.947
			v21.635h4.705V86.931h6.311V84.952z"/>
		<path fill="#67686B" d="M236.668,101.849c-0.535,0.696-1.186,1.312-1.947,1.848s-1.611,0.967-2.549,1.296
			c-0.939,0.33-1.922,0.495-2.947,0.495c-1.217,0-2.338-0.277-3.363-0.835s-1.906-1.326-2.639-2.31
			c-0.732-0.981-1.305-2.15-1.715-3.506s-0.615-2.825-0.615-4.409h17.611c0-1.318-0.258-2.579-0.77-3.781
			c-0.514-1.201-1.23-2.261-2.156-3.177c-0.922-0.916-2.029-1.646-3.32-2.188c-1.289-0.542-2.711-0.813-4.264-0.813
			c-1.746,0-3.332,0.329-4.762,0.989c-1.428,0.66-2.648,1.575-3.66,2.748s-1.795,2.565-2.352,4.178
			c-0.559,1.611-0.836,3.363-0.836,5.254c0,1.584,0.305,3.067,0.912,4.453c0.607,1.385,1.438,2.595,2.484,3.627
			c1.049,1.034,2.271,1.852,3.674,2.452c1.398,0.602,2.896,0.901,4.494,0.901c1.217,0,2.424-0.23,3.617-0.692
			s2.295-1.089,3.297-1.88c1.004-0.791,1.885-1.718,2.641-2.782c0.754-1.062,1.301-2.201,1.637-3.418l-1.342-0.594
			C237.58,100.438,237.201,101.153,236.668,101.849z M221.518,90.021c0.33-0.77,0.748-1.433,1.254-1.99
			c0.506-0.557,1.086-0.997,1.736-1.319c0.652-0.322,1.332-0.483,2.033-0.483c0.852,0,1.646,0.161,2.389,0.483
			c0.738,0.322,1.385,0.767,1.934,1.331s0.98,1.23,1.297,2c0.314,0.77,0.473,1.602,0.473,2.496l-11.719-0.022
			C220.988,91.621,221.189,90.789,221.518,90.021z"/>
		<path fill="#67686B" d="M267.168,104.762c-0.322,0.381-0.699,0.7-1.131,0.956c-0.434,0.257-0.914,0.386-1.441,0.386
			c-0.352,0-0.686-0.067-1-0.199c-0.316-0.131-0.586-0.311-0.814-0.537c-0.227-0.228-0.406-0.495-0.537-0.803
			c-0.133-0.308-0.199-0.638-0.199-0.99V86.931h5.299v-1.979h-5.299v-8.069h-1.34c-0.236,1.203-0.506,2.338-0.812,3.408
			c-0.309,1.07-0.734,2.012-1.277,2.825c-0.541,0.813-1.238,1.459-2.088,1.935c-0.607,0.341-1.336,0.557-2.182,0.654
			c-0.123-0.14-0.26-0.271-0.416-0.39c-0.33-0.256-0.715-0.462-1.154-0.615c-0.439-0.154-0.916-0.231-1.43-0.231
			c-0.629,0-1.248,0.132-1.857,0.396c-0.607,0.265-1.197,0.624-1.77,1.077c-0.572,0.455-1.121,0.982-1.648,1.583
			c-0.527,0.602-1.02,1.231-1.475,1.891v-4.463h-4.658v23.613h4.658V92.208c0.322-0.527,0.646-1.016,0.969-1.462
			s0.641-0.836,0.957-1.166c0.314-0.329,0.629-0.585,0.945-0.77c0.314-0.183,0.627-0.274,0.934-0.274
			c0.396,0,0.727,0.055,0.99,0.165c0.264,0.109,0.523,0.234,0.779,0.373c0.258,0.141,0.543,0.265,0.857,0.374
			c0.316,0.11,0.736,0.166,1.264,0.166c0.852,0,1.516-0.194,1.99-0.583c0.477-0.389,0.715-0.964,0.715-1.727
			c0-0.126-0.014-0.251-0.035-0.374h2.4v16.644c0,0.822,0.092,1.568,0.275,2.244c0.184,0.673,0.465,1.252,0.848,1.736
			c0.381,0.483,0.861,0.857,1.439,1.121s1.264,0.396,2.057,0.396c1.523,0,2.807-0.315,3.848-0.945
			c1.039-0.629,1.877-1.487,2.506-2.572L267.168,104.762z"/>
		<polygon fill="#67686B" points="171.939,85.97 171.939,108.726 176.601,108.726 176.601,84.629 175.237,84.629 		"/>
	</g>
	<g>
		<linearGradient id="SVGID_3_" gradientUnits="userSpaceOnUse" x1="167.8745" y1="69.4478" x2="256.8863" y2="158.102">
			<stop  offset="0" style="stop-color:#4D4D4D"/>
			<stop  offset="0.5304" style="stop-color:#FFFFFF"/>
			<stop  offset="1" style="stop-color:#1A1A1A"/>
		</linearGradient>
		<path fill="url(#SVGID_3_)" d="M179.459,75.413c-0.237-0.462-0.549-0.863-0.94-1.206c-0.39-0.343-0.851-0.615-1.382-0.815
			c-0.532-0.201-1.094-0.302-1.684-0.302c-0.592,0-1.147,0.101-1.667,0.302c-0.52,0.2-0.975,0.473-1.365,0.815
			c-0.391,0.343-0.704,0.744-0.94,1.206c-0.237,0.46-0.354,0.951-0.354,1.471c0,0.043,0.006,0.086,0.008,0.129
			c-0.001,0.043-0.008,0.085-0.008,0.128c0,0.521,0.118,1.012,0.354,1.472c0.236,0.461,0.549,0.863,0.94,1.206
			c0.39,0.343,0.845,0.614,1.365,0.815s1.075,0.301,1.667,0.301c0.59,0,1.152-0.1,1.684-0.301c0.532-0.201,0.993-0.473,1.382-0.815
			c0.391-0.343,0.703-0.745,0.94-1.206c0.236-0.46,0.354-0.951,0.354-1.472c0-0.043-0.005-0.085-0.007-0.128
			c0.001-0.043,0.007-0.086,0.007-0.129C179.813,76.364,179.695,75.873,179.459,75.413z"/>
		<linearGradient id="SVGID_4_" gradientUnits="userSpaceOnUse" x1="180.9888" y1="85.9766" x2="236.1814" y2="140.9475">
			<stop  offset="0" style="stop-color:#4D4D4D"/>
			<stop  offset="0.5304" style="stop-color:#FFFFFF"/>
			<stop  offset="1" style="stop-color:#1A1A1A"/>
		</linearGradient>
		<path fill="url(#SVGID_4_)" d="M199.916,87.067c-1.115-1.047-2.429-1.872-3.946-2.473c-1.517-0.602-3.177-0.902-4.98-0.902
			c-1.803,0-3.47,0.33-5.002,0.99c-1.531,0.659-2.851,1.557-3.957,2.693c-1.107,1.137-1.972,2.47-2.595,4.001
			c-0.623,1.532-0.934,3.17-0.934,4.915c0,1.655,0.311,3.213,0.934,4.672c0.623,1.458,1.488,2.729,2.595,3.815
			c1.106,1.084,2.426,1.942,3.957,2.571c1.532,0.63,3.199,0.946,5.002,0.946c1.803,0,3.464-0.343,4.98-1.024
			c1.517-0.68,2.831-1.611,3.946-2.791c1.114-1.18,1.983-2.558,2.604-4.134c0.623-1.575,0.936-3.258,0.936-5.046
			c0-1.612-0.312-3.126-0.936-4.54C201.898,89.347,201.029,88.116,199.916,87.067z M197.717,101.128
			c-0.308,1.071-0.744,2.005-1.308,2.804c-0.564,0.8-1.231,1.437-2,1.912c-0.77,0.477-1.616,0.715-2.54,0.715
			c-1.275,0-2.418-0.325-3.43-0.978c-1.012-0.653-1.862-1.54-2.551-2.66c-0.689-1.122-1.217-2.437-1.583-3.947
			c-0.367-1.511-0.55-3.122-0.55-4.837c0-1.188,0.169-2.309,0.506-3.364c0.337-1.056,0.788-1.979,1.353-2.771
			c0.563-0.791,1.212-1.414,1.945-1.868c0.733-0.455,1.496-0.682,2.287-0.682c1.539,0,2.836,0.318,3.892,0.956
			s1.913,1.514,2.573,2.628c0.659,1.113,1.135,2.414,1.429,3.901c0.293,1.487,0.439,3.09,0.439,4.806
			C198.179,98.93,198.025,100.059,197.717,101.128z"/>
		<linearGradient id="SVGID_5_" gradientUnits="userSpaceOnUse" x1="195.207" y1="71.7007" x2="250.3977" y2="126.6697">
			<stop  offset="0" style="stop-color:#4D4D4D"/>
			<stop  offset="0.5304" style="stop-color:#FFFFFF"/>
			<stop  offset="1" style="stop-color:#1A1A1A"/>
		</linearGradient>
		<path fill="url(#SVGID_5_)" d="M218.234,84.177h-6.311V78.57c0-0.602,0.08-1.188,0.242-1.759c0.16-0.572,0.385-1.078,0.67-1.518
			s0.629-0.795,1.033-1.066s0.84-0.406,1.309-0.406c0.615,0,1.088,0.109,1.418,0.329c0.33,0.221,0.584,0.499,0.76,0.836
			c0.174,0.337,0.311,0.7,0.406,1.088c0.096,0.389,0.223,0.752,0.385,1.089s0.391,0.615,0.691,0.835s0.736,0.33,1.309,0.33
			c0.322,0,0.629-0.051,0.924-0.153c0.293-0.103,0.549-0.249,0.77-0.44c0.219-0.19,0.395-0.422,0.527-0.692
			c0.133-0.271,0.197-0.582,0.197-0.935c0-0.557-0.146-1.081-0.439-1.572s-0.719-0.915-1.275-1.275
			c-0.557-0.358-1.242-0.645-2.055-0.857c-0.814-0.212-1.742-0.318-2.783-0.318c-1.215,0-2.357,0.242-3.43,0.726
			c-1.068,0.483-2,1.146-2.791,1.99c-0.791,0.843-1.418,1.832-1.881,2.968c-0.461,1.136-0.691,2.35-0.691,3.639v2.771h-4.947v1.979
			h4.947v21.635h4.705V86.155h6.311V84.177z"/>
		<linearGradient id="SVGID_6_" gradientUnits="userSpaceOnUse" x1="213.1582" y1="80.5825" x2="275.8501" y2="143.0226">
			<stop  offset="0" style="stop-color:#4D4D4D"/>
			<stop  offset="0.5304" style="stop-color:#FFFFFF"/>
			<stop  offset="1" style="stop-color:#1A1A1A"/>
		</linearGradient>
		<path fill="url(#SVGID_6_)" d="M237.443,101.073c-0.535,0.697-1.186,1.312-1.947,1.848s-1.611,0.967-2.549,1.297
			c-0.939,0.329-1.92,0.494-2.947,0.494c-1.217,0-2.338-0.277-3.365-0.835c-1.023-0.558-1.904-1.326-2.637-2.31
			c-0.732-0.98-1.305-2.15-1.715-3.506c-0.412-1.356-0.615-2.826-0.615-4.409h17.611c0-1.318-0.258-2.579-0.77-3.781
			c-0.514-1.202-1.23-2.261-2.156-3.177c-0.922-0.916-2.029-1.646-3.318-2.188c-1.291-0.541-2.713-0.813-4.268-0.813
			c-1.742,0-3.33,0.33-4.76,0.99c-1.428,0.659-2.648,1.575-3.66,2.748s-1.795,2.565-2.352,4.178
			c-0.559,1.611-0.836,3.363-0.836,5.255c0,1.583,0.305,3.067,0.912,4.452s1.438,2.595,2.484,3.627
			c1.049,1.034,2.271,1.852,3.672,2.452s2.898,0.902,4.496,0.902c1.217,0,2.424-0.231,3.617-0.693s2.293-1.089,3.297-1.879
			c1.004-0.792,1.885-1.719,2.639-2.783c0.756-1.062,1.301-2.201,1.639-3.419l-1.342-0.593
			C238.354,99.662,237.977,100.377,237.443,101.073z M222.293,89.244c0.33-0.77,0.748-1.433,1.254-1.989
			c0.506-0.558,1.086-0.997,1.736-1.319c0.652-0.322,1.332-0.483,2.035-0.483c0.85,0,1.645,0.161,2.385,0.483
			s1.387,0.767,1.934,1.33c0.551,0.564,0.982,1.231,1.299,2.001c0.314,0.77,0.473,1.602,0.473,2.495l-11.719-0.021
			C221.764,90.847,221.965,90.014,222.293,89.244z"/>
		<linearGradient id="SVGID_7_" gradientUnits="userSpaceOnUse" x1="213.249" y1="53.5874" x2="268.44" y2="108.5567">
			<stop  offset="0" style="stop-color:#4D4D4D"/>
			<stop  offset="0.5304" style="stop-color:#FFFFFF"/>
			<stop  offset="1" style="stop-color:#1A1A1A"/>
		</linearGradient>
		<path fill="url(#SVGID_7_)" d="M267.945,103.986c-0.324,0.381-0.701,0.701-1.133,0.956c-0.434,0.259-0.912,0.386-1.441,0.386
			c-0.352,0-0.686-0.066-1-0.199c-0.316-0.132-0.586-0.31-0.814-0.537c-0.227-0.228-0.406-0.495-0.539-0.803
			c-0.131-0.308-0.197-0.637-0.197-0.99V86.155h5.299v-1.979h-5.299v-8.069h-1.34c-0.236,1.202-0.506,2.338-0.814,3.408
			c-0.307,1.07-0.734,2.012-1.275,2.825s-1.238,1.459-2.088,1.935c-0.607,0.341-1.336,0.557-2.182,0.653
			c-0.123-0.139-0.262-0.269-0.416-0.389c-0.328-0.257-0.715-0.463-1.154-0.616c-0.439-0.154-0.916-0.231-1.43-0.231
			c-0.629,0-1.25,0.133-1.857,0.396s-1.197,0.623-1.77,1.077s-1.121,0.982-1.648,1.583c-0.527,0.602-1.02,1.231-1.473,1.891v-4.463
			h-4.662v23.613h4.662V91.432c0.32-0.527,0.645-1.014,0.967-1.461s0.641-0.836,0.957-1.166c0.314-0.33,0.629-0.586,0.943-0.769
			c0.316-0.184,0.627-0.275,0.936-0.275c0.396,0,0.727,0.055,0.99,0.165s0.523,0.234,0.779,0.373
			c0.258,0.14,0.543,0.264,0.857,0.374c0.316,0.11,0.736,0.165,1.264,0.165c0.852,0,1.516-0.194,1.99-0.583
			c0.477-0.389,0.715-0.964,0.715-1.726c0-0.127-0.014-0.251-0.035-0.374h2.4v16.644c0,0.821,0.094,1.568,0.275,2.243
			c0.184,0.674,0.465,1.254,0.846,1.737c0.383,0.483,0.861,0.857,1.441,1.121c0.58,0.265,1.264,0.396,2.057,0.396
			c1.523,0,2.807-0.316,3.846-0.946c1.041-0.629,1.877-1.487,2.508-2.571L267.945,103.986z"/>
		<linearGradient id="SVGID_8_" gradientUnits="userSpaceOnUse" x1="164.8262" y1="85.7227" x2="220.0158" y2="140.6906">
			<stop  offset="0" style="stop-color:#4D4D4D"/>
			<stop  offset="0.5304" style="stop-color:#FFFFFF"/>
			<stop  offset="1" style="stop-color:#1A1A1A"/>
		</linearGradient>
		<polygon fill="url(#SVGID_8_)" points="172.715,85.193 172.715,107.949 177.376,107.949 177.376,83.853 176.012,83.853 		"/>
	</g>
	<g>
		<path fill="#4EC3CD" d="M182.419,72.848c-1.613-0.261-2.846,0.599-3.585,1.478c-0.021-0.005-0.041-0.014-0.062-0.018
			c-1.406-0.253-3.149,0.861-3.65,1.209c-1.505,1.046-2.092,2.062-1.694,2.936c0.163,0.358,0.487,0.619,0.911,0.732
			c1.144,0.307,3.349-0.458,4.612-1.336c1.151-0.8,1.343-1.565,1.271-2.108c0.307-0.419,0.953-1.098,1.86-0.952
			c2.616,0.422,5.088-2.203,5.555-4.831c0.226-1.27,2.062-1.281,2.136-1.281c0.546,0.007,0.997-0.429,1.008-0.973
			c0.012-0.542-0.419-0.988-0.965-0.992c-0.725-0.009-1.86,0.188-2.766,0.818c-0.652,0.452-1.184,1.127-1.358,2.108
			C185.401,71.273,183.833,73.075,182.419,72.848z"/>
	</g>
</g>
</svg>
